<svg xmlns="http://www.w3.org/2000/svg" xmlns:xlink="http://www.w3.org/1999/xlink" width="1200" zoomAndPan="magnify" viewBox="0 0 900 472.499986" height="630" preserveAspectRatio="xMidYMid meet" version="1.0"><defs><g/><clipPath id="8dcdf905a8"><path d="M 0.476562 0 L 899.523438 0 L 899.523438 472 L 0.476562 472 Z M 0.476562 0 " clip-rule="nonzero"/></clipPath><clipPath id="5a87d3b482"><path d="M 754 163.332031 L 842.570312 163.332031 L 842.570312 282 L 754 282 Z M 754 163.332031 " clip-rule="nonzero"/></clipPath><clipPath id="9d5d5de657"><path d="M 743 170 L 834 170 L 834 289 L 743 289 Z M 743 170 " clip-rule="nonzero"/></clipPath><clipPath id="5aab132e55"><path d="M 737.570312 186.742188 L 771.03125 163.292969 L 850.800781 277.125 L 817.34375 300.570312 Z M 737.570312 186.742188 " clip-rule="nonzero"/></clipPath><clipPath id="ed8c2405a7"><path d="M 737.570312 186.742188 L 771.03125 163.292969 L 850.800781 277.125 L 817.34375 300.570312 Z M 737.570312 186.742188 " clip-rule="nonzero"/></clipPath><clipPath id="6dde577188"><path d="M 206 207 L 297 207 L 297 257 L 206 257 Z M 206 207 " clip-rule="nonzero"/></clipPath><clipPath id="30f0d93043"><path d="M 239.734375 179.011719 L 297.050781 210.257812 L 263.46875 271.863281 L 206.152344 240.617188 Z M 239.734375 179.011719 " clip-rule="nonzero"/></clipPath><clipPath id="9545c377a6"><path d="M 239.734375 179.011719 L 297.050781 210.257812 L 263.46875 271.863281 L 206.152344 240.617188 Z M 239.734375 179.011719 " clip-rule="nonzero"/></clipPath></defs><g clip-path="url(#8dcdf905a8)"><path fill="none" d="M 0.476562 0 L 899.523438 0 L 899.523438 472 L 0.476562 472 Z M 0.476562 0 " fill-opacity="1" fill-rule="nonzero"/><path fill="none" d="M 0.476562 0 L 899.523438 0 L 899.523438 472 L 0.476562 472 Z M 0.476562 0 " fill-opacity="1" fill-rule="nonzero"/></g><g fill="#fe2a05" fill-opacity="1"><g transform="translate(77.88818, 280.576979)"><g><path d="M 84.0625 0 L 52.640625 -53.96875 L 31.8125 -53.96875 L 31.8125 0 L 14.578125 0 L 14.578125 -131.96875 L 57.1875 -131.96875 C 67.15625 -131.96875 75.578125 -130.265625 82.453125 -126.859375 C 89.335938 -123.453125 94.484375 -118.84375 97.890625 -113.03125 C 101.296875 -107.226562 103 -100.601562 103 -93.15625 C 103 -84.070312 100.378906 -76.054688 95.140625 -69.109375 C 89.898438 -62.171875 82.046875 -57.5625 71.578125 -55.28125 L 104.703125 0 Z M 31.8125 -67.78125 L 57.1875 -67.78125 C 66.519531 -67.78125 73.519531 -70.082031 78.1875 -74.6875 C 82.863281 -79.300781 85.203125 -85.457031 85.203125 -93.15625 C 85.203125 -100.976562 82.894531 -107.035156 78.28125 -111.328125 C 73.675781 -115.617188 66.644531 -117.765625 57.1875 -117.765625 L 31.8125 -117.765625 Z M 31.8125 -67.78125 "/></g></g></g><g fill="#fe2a05" fill-opacity="1"><g transform="translate(193.01002, 280.576979)"><g><path d="M 8.140625 -52.265625 C 8.140625 -62.859375 10.285156 -72.160156 14.578125 -80.171875 C 18.867188 -88.191406 24.769531 -94.410156 32.28125 -98.828125 C 39.789062 -103.253906 48.15625 -105.46875 57.375 -105.46875 C 66.457031 -105.46875 74.34375 -103.507812 81.03125 -99.59375 C 87.726562 -95.675781 92.71875 -90.753906 96 -84.828125 L 96 -103.765625 L 113.421875 -103.765625 L 113.421875 0 L 96 0 L 96 -19.3125 C 92.59375 -13.25 87.507812 -8.226562 80.75 -4.25 C 74 -0.28125 66.144531 1.703125 57.1875 1.703125 C 47.96875 1.703125 39.632812 -0.566406 32.1875 -5.109375 C 24.738281 -9.648438 18.867188 -16.023438 14.578125 -24.234375 C 10.285156 -32.441406 8.140625 -41.785156 8.140625 -52.265625 Z M 96 -52.0625 C 96 -59.894531 94.421875 -66.710938 91.265625 -72.515625 C 88.109375 -78.328125 83.847656 -82.773438 78.484375 -85.859375 C 73.117188 -88.953125 67.21875 -90.5 60.78125 -90.5 C 54.34375 -90.5 48.472656 -88.984375 43.171875 -85.953125 C 37.867188 -82.929688 33.640625 -78.515625 30.484375 -72.703125 C 27.328125 -66.898438 25.75 -60.085938 25.75 -52.265625 C 25.75 -44.304688 27.328125 -37.390625 30.484375 -31.515625 C 33.640625 -25.648438 37.867188 -21.171875 43.171875 -18.078125 C 48.472656 -14.984375 54.34375 -13.4375 60.78125 -13.4375 C 67.21875 -13.4375 73.117188 -14.984375 78.484375 -18.078125 C 83.847656 -21.171875 88.109375 -25.648438 91.265625 -31.515625 C 94.421875 -37.390625 96 -44.238281 96 -52.0625 Z M 96 -52.0625 "/></g></g></g><g fill="#fe2a05" fill-opacity="1"><g transform="translate(321.007321, 280.576979)"><g><path d="M 31.8125 -84.640625 C 35.21875 -90.566406 40.296875 -95.519531 47.046875 -99.5 C 53.804688 -103.476562 61.664062 -105.46875 70.625 -105.46875 C 79.84375 -105.46875 88.207031 -103.253906 95.71875 -98.828125 C 103.226562 -94.410156 109.128906 -88.191406 113.421875 -80.171875 C 117.710938 -72.160156 119.859375 -62.859375 119.859375 -52.265625 C 119.859375 -41.785156 117.710938 -32.441406 113.421875 -24.234375 C 109.128906 -16.023438 103.226562 -9.648438 95.71875 -5.109375 C 88.207031 -0.566406 79.84375 1.703125 70.625 1.703125 C 61.789062 1.703125 53.992188 -0.28125 47.234375 -4.25 C 40.484375 -8.226562 35.34375 -13.1875 31.8125 -19.125 L 31.8125 49.234375 L 14.578125 49.234375 L 14.578125 -103.765625 L 31.8125 -103.765625 Z M 102.25 -52.265625 C 102.25 -60.085938 100.671875 -66.898438 97.515625 -72.703125 C 94.359375 -78.515625 90.097656 -82.929688 84.734375 -85.953125 C 79.367188 -88.984375 73.46875 -90.5 67.03125 -90.5 C 60.71875 -90.5 54.878906 -88.953125 49.515625 -85.859375 C 44.148438 -82.773438 39.859375 -78.296875 36.640625 -72.421875 C 33.421875 -66.554688 31.8125 -59.769531 31.8125 -52.0625 C 31.8125 -44.238281 33.421875 -37.390625 36.640625 -31.515625 C 39.859375 -25.648438 44.148438 -21.171875 49.515625 -18.078125 C 54.878906 -14.984375 60.71875 -13.4375 67.03125 -13.4375 C 73.46875 -13.4375 79.367188 -14.984375 84.734375 -18.078125 C 90.097656 -21.171875 94.359375 -25.648438 97.515625 -31.515625 C 100.671875 -37.390625 102.25 -44.304688 102.25 -52.265625 Z M 102.25 -52.265625 "/></g></g></g><g fill="#fe2a05" fill-opacity="1"><g transform="translate(449.004622, 280.576979)"><g><path d="M 31.8125 -84.640625 C 35.21875 -90.566406 40.296875 -95.519531 47.046875 -99.5 C 53.804688 -103.476562 61.664062 -105.46875 70.625 -105.46875 C 79.84375 -105.46875 88.207031 -103.253906 95.71875 -98.828125 C 103.226562 -94.410156 109.128906 -88.191406 113.421875 -80.171875 C 117.710938 -72.160156 119.859375 -62.859375 119.859375 -52.265625 C 119.859375 -41.785156 117.710938 -32.441406 113.421875 -24.234375 C 109.128906 -16.023438 103.226562 -9.648438 95.71875 -5.109375 C 88.207031 -0.566406 79.84375 1.703125 70.625 1.703125 C 61.789062 1.703125 53.992188 -0.28125 47.234375 -4.25 C 40.484375 -8.226562 35.34375 -13.1875 31.8125 -19.125 L 31.8125 49.234375 L 14.578125 49.234375 L 14.578125 -103.765625 L 31.8125 -103.765625 Z M 102.25 -52.265625 C 102.25 -60.085938 100.671875 -66.898438 97.515625 -72.703125 C 94.359375 -78.515625 90.097656 -82.929688 84.734375 -85.953125 C 79.367188 -88.984375 73.46875 -90.5 67.03125 -90.5 C 60.71875 -90.5 54.878906 -88.953125 49.515625 -85.859375 C 44.148438 -82.773438 39.859375 -78.296875 36.640625 -72.421875 C 33.421875 -66.554688 31.8125 -59.769531 31.8125 -52.0625 C 31.8125 -44.238281 33.421875 -37.390625 36.640625 -31.515625 C 39.859375 -25.648438 44.148438 -21.171875 49.515625 -18.078125 C 54.878906 -14.984375 60.71875 -13.4375 67.03125 -13.4375 C 73.46875 -13.4375 79.367188 -14.984375 84.734375 -18.078125 C 90.097656 -21.171875 94.359375 -25.648438 97.515625 -31.515625 C 100.671875 -37.390625 102.25 -44.304688 102.25 -52.265625 Z M 102.25 -52.265625 "/></g></g></g><g fill="#fe2a05" fill-opacity="1"><g transform="translate(577.001923, 280.576979)"><g><path d="M 23.484375 -120.609375 C 20.203125 -120.609375 17.421875 -121.742188 15.140625 -124.015625 C 12.867188 -126.285156 11.734375 -129.0625 11.734375 -132.34375 C 11.734375 -135.632812 12.867188 -138.414062 15.140625 -140.6875 C 17.421875 -142.957031 20.203125 -144.09375 23.484375 -144.09375 C 26.640625 -144.09375 29.320312 -142.957031 31.53125 -140.6875 C 33.738281 -138.414062 34.84375 -135.632812 34.84375 -132.34375 C 34.84375 -129.0625 33.738281 -126.285156 31.53125 -124.015625 C 29.320312 -121.742188 26.640625 -120.609375 23.484375 -120.609375 Z M 31.8125 -103.765625 L 31.8125 0 L 14.578125 0 L 14.578125 -103.765625 Z M 31.8125 -103.765625 "/></g></g></g><g fill="#fe2a05" fill-opacity="1"><g transform="translate(623.58081, 280.576979)"><g><path d="M 56.796875 -89.5625 L 35.03125 -89.5625 L 35.03125 0 L 17.796875 0 L 17.796875 -89.5625 L 4.359375 -89.5625 L 4.359375 -103.765625 L 17.796875 -103.765625 L 17.796875 -111.140625 C 17.796875 -122.753906 20.789062 -131.242188 26.78125 -136.609375 C 32.78125 -141.972656 42.410156 -144.65625 55.671875 -144.65625 L 55.671875 -130.265625 C 48.097656 -130.265625 42.765625 -128.78125 39.671875 -125.8125 C 36.578125 -122.851562 35.03125 -117.960938 35.03125 -111.140625 L 35.03125 -103.765625 L 56.796875 -103.765625 Z M 56.796875 -89.5625 "/></g></g></g><g fill="#fe2a05" fill-opacity="1"><g transform="translate(685.875365, 280.576979)"><g><path d="M 23.484375 -120.609375 C 20.203125 -120.609375 17.421875 -121.742188 15.140625 -124.015625 C 12.867188 -126.285156 11.734375 -129.0625 11.734375 -132.34375 C 11.734375 -135.632812 12.867188 -138.414062 15.140625 -140.6875 C 17.421875 -142.957031 20.203125 -144.09375 23.484375 -144.09375 C 26.640625 -144.09375 29.320312 -142.957031 31.53125 -140.6875 C 33.738281 -138.414062 34.84375 -135.632812 34.84375 -132.34375 C 34.84375 -129.0625 33.738281 -126.285156 31.53125 -124.015625 C 29.320312 -121.742188 26.640625 -120.609375 23.484375 -120.609375 Z M 31.8125 -103.765625 L 31.8125 0 L 14.578125 0 L 14.578125 -103.765625 Z M 31.8125 -103.765625 "/></g></g></g><g clip-path="url(#5a87d3b482)"><path fill="#fe2a05" d="M 792.082031 244.628906 C 791.9375 242.734375 792.480469 240.851562 793.582031 239.308594 L 795.414062 236.742188 C 795.875 236.089844 795.730469 235.179688 795.078125 234.703125 L 794.027344 233.953125 L 830.085938 183.363281 L 836.21875 180.335938 L 842.355469 166.695312 L 837.636719 163.332031 L 826.804688 173.625 L 825.863281 180.542969 L 789.882812 231.003906 L 788.832031 230.257812 C 788.179688 229.792969 787.269531 229.9375 786.792969 230.589844 L 784.59375 233.683594 C 783.683594 234.972656 782.332031 235.898438 780.785156 236.214844 C 779.082031 236.582031 777.488281 237.554688 776.402344 239.085938 L 755.625 268.242188 C 753.3125 271.496094 754.0625 276.003906 757.3125 278.3125 L 759.910156 280.164062 C 763.160156 282.472656 767.671875 281.722656 769.980469 278.472656 L 790.742188 249.332031 C 791.78125 247.910156 792.195312 246.253906 792.082031 244.628906 Z M 792.082031 244.628906 " fill-opacity="1" fill-rule="nonzero"/></g><g clip-path="url(#9d5d5de657)"><g clip-path="url(#5aab132e55)"><g clip-path="url(#ed8c2405a7)"><path fill="#fe2a05" d="M 773.960938 172.101562 L 773.507812 172.421875 C 773.507812 172.421875 765.265625 168.054688 756.347656 174.304688 L 754.382812 175.679688 L 752.570312 176.953125 C 743.503906 183.308594 744.945312 192.4375 744.945312 192.4375 L 744.492188 192.757812 C 743.433594 193.496094 743.3125 194.933594 743.949219 195.839844 C 744.6875 196.898438 746.125 197.019531 747.03125 196.382812 L 755.496094 190.453125 L 757.933594 193.929688 L 762.636719 195.816406 L 765.8125 200.347656 L 765.011719 201.136719 C 764.710938 201.347656 764.621094 201.863281 764.9375 202.316406 C 765.148438 202.617188 765.664062 202.707031 766.117188 202.390625 L 766.765625 201.710938 L 771.320312 208.207031 L 770.519531 208.996094 C 770.21875 209.207031 770.125 209.722656 770.445312 210.175781 C 770.65625 210.476562 771.171875 210.566406 771.625 210.25 L 772.273438 209.570312 L 776.828125 216.066406 L 776.027344 216.855469 C 775.726562 217.066406 775.632812 217.582031 775.953125 218.035156 C 776.164062 218.335938 776.679688 218.425781 777.132812 218.109375 L 777.78125 217.429688 L 782.335938 223.925781 L 781.277344 224.667969 C 780.976562 224.878906 780.886719 225.394531 781.203125 225.847656 C 781.414062 226.148438 781.929688 226.242188 782.382812 225.921875 L 783.03125 225.242188 L 787.585938 231.742188 L 786.785156 232.527344 C 786.484375 232.738281 786.394531 233.253906 786.710938 233.707031 C 786.921875 234.007812 787.4375 234.097656 787.890625 233.78125 L 788.539062 233.101562 L 793.09375 239.601562 L 792.292969 240.386719 C 791.992188 240.597656 791.902344 241.113281 792.21875 241.566406 C 792.429688 241.867188 792.945312 241.957031 793.398438 241.640625 L 794.046875 240.960938 L 798.601562 247.457031 L 797.800781 248.246094 C 797.5 248.457031 797.40625 248.972656 797.726562 249.425781 C 797.9375 249.726562 798.453125 249.816406 798.90625 249.5 L 799.554688 248.820312 L 804.109375 255.316406 L 803.308594 256.105469 C 803.007812 256.316406 802.914062 256.832031 803.234375 257.285156 C 803.445312 257.585938 803.960938 257.675781 804.414062 257.359375 L 805.0625 256.679688 L 809.617188 263.175781 L 808.816406 263.964844 C 808.515625 264.175781 808.421875 264.691406 808.742188 265.144531 C 808.953125 265.445312 809.46875 265.535156 809.921875 265.21875 L 810.570312 264.539062 L 815.125 271.035156 L 814.324219 271.824219 C 814.019531 272.035156 813.929688 272.546875 814.25 273.003906 C 814.460938 273.304688 814.976562 273.394531 815.429688 273.078125 L 816.078125 272.398438 L 820.207031 278.289062 L 832.972656 287.824219 L 833.292969 288.277344 L 833.335938 288.019531 L 833.699219 288.21875 L 833.382812 287.761719 L 828.777344 272.511719 L 824.011719 265.710938 L 824.8125 264.921875 C 825.113281 264.710938 825.207031 264.195312 824.886719 263.742188 C 824.675781 263.441406 824.160156 263.351562 823.707031 263.667969 L 823.058594 264.347656 L 818.503906 257.851562 L 819.304688 257.0625 C 819.609375 256.851562 819.699219 256.335938 819.378906 255.882812 C 819.167969 255.582031 818.652344 255.492188 818.199219 255.808594 L 817.550781 256.488281 L 812.996094 249.992188 L 813.796875 249.203125 C 814.101562 248.992188 814.191406 248.480469 813.871094 248.023438 C 813.660156 247.722656 813.148438 247.632812 812.691406 247.949219 L 812.042969 248.632812 L 807.488281 242.132812 L 808.289062 241.34375 C 808.59375 241.132812 808.683594 240.621094 808.363281 240.167969 C 808.152344 239.863281 807.640625 239.773438 807.183594 240.089844 L 806.535156 240.773438 L 801.980469 234.273438 L 802.78125 233.488281 C 803.085938 233.273438 803.175781 232.761719 802.855469 232.308594 C 802.644531 232.003906 802.132812 231.914062 801.679688 232.230469 L 801.027344 232.914062 L 796.472656 226.414062 L 797.273438 225.628906 C 797.578125 225.414062 797.667969 224.902344 797.347656 224.449219 C 797.136719 224.144531 796.625 224.054688 796.171875 224.371094 L 795.519531 225.054688 L 790.964844 218.554688 L 791.765625 217.769531 C 792.070312 217.554688 792.160156 217.042969 791.84375 216.589844 C 791.628906 216.285156 791.117188 216.195312 790.664062 216.515625 L 790.011719 217.195312 L 785.351562 210.542969 L 786.152344 209.757812 C 786.457031 209.546875 786.546875 209.03125 786.226562 208.578125 C 786.015625 208.277344 785.503906 208.1875 785.050781 208.503906 L 784.398438 209.183594 L 779.84375 202.683594 L 780.644531 201.898438 C 780.949219 201.6875 781.039062 201.171875 780.722656 200.71875 C 780.507812 200.417969 779.996094 200.328125 779.542969 200.644531 L 778.890625 201.324219 L 774.335938 194.828125 L 775.136719 194.039062 C 775.441406 193.828125 775.53125 193.3125 775.214844 192.859375 C 775 192.558594 774.488281 192.46875 774.035156 192.785156 L 773.382812 193.464844 L 770.84375 189.839844 L 770.671875 184.773438 L 768.238281 181.296875 L 776.699219 175.367188 C 777.757812 174.625 777.878906 173.1875 777.242188 172.28125 C 776.410156 171.738281 775.019531 171.359375 773.960938 172.101562 Z M 773.960938 172.101562 " fill-opacity="1" fill-rule="nonzero"/></g></g></g><g clip-path="url(#6dde577188)"><g clip-path="url(#30f0d93043)"><g clip-path="url(#9545c377a6)"><path fill="#fe2a05" d="M 206.085938 240.785156 C 206.085938 240.785156 224.183594 243.003906 230.742188 242.507812 C 237.300781 242.015625 244.355469 242.652344 244.355469 242.652344 C 244.355469 242.652344 242.558594 251.011719 243.234375 253.761719 C 243.445312 254.617188 267.226562 257.15625 268.367188 256.421875 C 269.507812 255.6875 269.703125 250.921875 269.484375 250.308594 C 269.261719 249.695312 266.777344 245.316406 266.144531 244.664062 C 265.511719 244.011719 258.144531 241.351562 257.886719 241.027344 C 257.628906 240.703125 257.644531 240.679688 258.648438 240.535156 C 259.652344 240.386719 262.933594 238.78125 263.171875 237.554688 C 263.410156 236.328125 262 235.066406 262 235.066406 C 262 235.066406 263.71875 233.71875 262.410156 231.710938 C 262.410156 231.710938 263.753906 230.039062 263.554688 228.820312 C 263.355469 227.601562 262.4375 226.792969 262.4375 226.792969 L 262.597656 225.710938 C 262.597656 225.710938 266.5 225 266.996094 223.296875 C 267.40625 221.898438 266.640625 221.007812 264.078125 220.164062 L 264.667969 219.3125 C 264.667969 219.3125 275.722656 217.136719 279.441406 215.402344 C 279.441406 215.402344 280.417969 214.515625 280.339844 213.300781 C 280.339844 213.300781 296 211.84375 296.203125 211.585938 C 296.40625 211.328125 296.953125 210.207031 295.199219 209.804688 C 293.445312 209.40625 280.105469 211.132812 280.105469 211.132812 C 280.105469 211.132812 279.304688 209.09375 275.464844 208.667969 C 273.046875 208.40625 270.628906 208.320312 268.199219 208.410156 L 264.402344 207.570312 C 264.402344 207.570312 244.460938 208.851562 242.613281 208.957031 C 240.769531 209.058594 235.589844 219.128906 244.773438 223.210938 C 244.773438 223.210938 242.203125 229.394531 241.363281 229.921875 C 240.519531 230.449219 228.019531 228.382812 224.886719 227.230469 C 221.753906 226.074219 216.246094 222.148438 216.246094 222.148438 Z M 206.085938 240.785156 " fill-opacity="1" fill-rule="nonzero"/></g></g></g></svg>